<?xml version='1.0' encoding='utf-8'?>
<svg xmlns:xlink="http://www.w3.org/1999/xlink" xmlns="http://www.w3.org/2000/svg" width="858.72418" height="599.99994" viewBox="0 0 227.2041 158.74998" version="1.1" id="svg5"><defs id="defs2"><clipPath id="Canton"><path d="M 0,0 H 600 V 300 H 0 Z" id="path811"/></clipPath><clipPath id="Diagonals"><path d="M 0,0 300,150 H 0 Z M 300,0 H 600 L 300,150 Z m 0,150 h 300 v 150 z m 0,0 V 300 H 0 Z" id="path814"/></clipPath><clipPath id="clipPath1959"><path d="M 0,0 H 600 V 300 H 0 Z" id="path1957"/></clipPath><clipPath id="clipPath1963"><path d="M 0,0 H 600 V 300 H 0 Z" id="path1961"/></clipPath><clipPath id="Canton-9"><path d="M 0,0 H 600 V 300 H 0 Z" id="path811-1"/></clipPath><clipPath id="Diagonals-1"><path d="M 0,0 300,150 H 0 Z M 300,0 H 600 L 300,150 Z m 0,150 h 300 v 150 z m 0,0 V 300 H 0 Z" id="path814-5"/></clipPath><clipPath id="clipPath1959-1"><path d="M 0,0 H 600 V 300 H 0 Z" id="path1957-7"/></clipPath><clipPath id="clipPath1963-0"><path d="M 0,0 H 600 V 300 H 0 Z" id="path1961-1"/></clipPath><clipPath id="Canton-1"><path d="M 0,0 H 600 V 300 H 0 Z" id="path811-9"/></clipPath><clipPath id="Diagonals-8"><path d="M 0,0 300,150 H 0 Z M 300,0 H 600 L 300,150 Z m 0,150 h 300 v 150 z m 0,0 V 300 H 0 Z" id="path814-1"/></clipPath><clipPath id="clipPath8474"><path d="M 0,0 H 600 V 300 H 0 Z" id="path8472"/></clipPath><clipPath id="clipPath8478"><path d="M 0,0 H 600 V 300 H 0 Z" id="path8476"/></clipPath><clipPath id="Canton-90"><path d="M 0,0 H 600 V 300 H 0 Z" id="path811-96"/></clipPath><clipPath id="Diagonals-4"><path d="M 0,0 300,150 H 0 Z M 300,0 H 600 L 300,150 Z m 0,150 h 300 v 150 z m 0,0 V 300 H 0 Z" id="path814-9"/></clipPath><g id="Pentagram"><g id="Arm" transform="translate(0,-0.324925)"><path d="M 0,0 V 0.5 L 1,0 Z" id="path817"/><path d="M 0,0 V -0.5 L 1,0 Z" transform="rotate(-36,1,0)" id="path819"/></g><use xlink:href="#Arm" transform="scale(-1,1)" id="use822"/><use xlink:href="#Arm" transform="rotate(72)" id="use824"/><use xlink:href="#Arm" transform="rotate(-72)" id="use826"/><use xlink:href="#Arm" transform="matrix(-0.30901699,0.95105652,0.95105652,0.30901699,0,0)" id="use828"/></g><clipPath id="Canton-91"><path d="M 0,0 H 600 V 300 H 0 Z" id="path811-0"/></clipPath><clipPath id="Diagonals-83"><path d="M 0,0 300,150 H 0 Z M 300,0 H 600 L 300,150 Z m 0,150 h 300 v 150 z m 0,0 V 300 H 0 Z" id="path814-3"/></clipPath><clipPath id="clipPath1959-5"><path d="M 0,0 H 600 V 300 H 0 Z" id="path1957-6"/></clipPath><clipPath id="clipPath1963-6"><path d="M 0,0 H 600 V 300 H 0 Z" id="path1961-8"/></clipPath><clipPath id="Canton-1-0"><path d="M 0,0 H 600 V 300 H 0 Z" id="path811-9-9"/></clipPath><clipPath id="Diagonals-8-4"><path d="M 0,0 300,150 H 0 Z M 300,0 H 600 L 300,150 Z m 0,150 h 300 v 150 z m 0,0 V 300 H 0 Z" id="path814-1-6"/></clipPath><clipPath id="clipPath8474-6"><path d="M 0,0 H 600 V 300 H 0 Z" id="path8472-1"/></clipPath><clipPath id="clipPath8478-7"><path d="M 0,0 H 600 V 300 H 0 Z" id="path8476-9"/></clipPath></defs><g id="layer1" transform="translate(-165.79794)"><g id="g779" transform="translate(570.44164)"><path id="path700" style="display:inline;fill:#012169;fill-opacity:1;stroke-width:0.113277" d="m -322.99998,7.0376128e-5 c 0.14929,5.4024922e-5 0.2982,1.38921222e-4 0.44749,7.48633952e-4 l -0.002,0.00154357 c 6.14162,0.02392532 12.26611,0.51901741 17.42633,1.46591222 10.48297,1.9235882 23.95568,7.1291284 32.14306,12.4142322 1.84446,1.190655 2.98997,2.010738 8.63535,6.207124 6.49306,4.82664 9.89642,5.725159 18.09155,4.776374 5.71221,-0.661273 7.7797,-0.797609 12.25411,-0.804416 5.95037,-0.0087 9.41281,0.421356 13.51872,1.675429 3.74761,1.144695 6.39082,2.623334 9.04017,5.051006 4.99382,4.576435 7.73243,11.132413 9.43453,22.573101 0.39131,2.630597 0.41287,3.159254 0.36068,10.530784 l -0.0553,7.765064 1.5819,1.929847 c 11.68661,14.279704 19.64428,32.12262 21.87119,49.02689 0.20075,1.52352 0.4645,3.3927 0.58219,4.15453 0.35011,2.26633 0.29038,7.16257 -0.10556,8.71766 -0.37037,1.45497 -0.9822,2.7791 -1.18754,2.57715 -0.0739,-0.0726 -0.82676,-2.47938 -1.67544,-5.34734 -2.59222,-8.75954 -3.94768,-12.99862 -5.67733,-17.76081 -5.77503,-15.901929 -12.85672,-27.63919 -22.34861,-37.039928 l -1.42627,-1.415776 -4.81153,-0.01652 c -2.69612,-0.0069 -5.43022,-0.100495 -6.22658,-0.20876 -5.65866,-0.768273 -8.16996,-1.287368 -12.23165,-2.535984 -5.55665,-1.708261 -10.46858,-4.049485 -14.96743,-7.129021 -0.89434,-0.612226 -1.67084,-1.109718 -1.72033,-1.109718 -0.0496,0 -0.53184,0.76118 -1.07081,1.695626 -3.17937,5.511654 -8.17732,11.443959 -14.163,16.798516 -12.89299,11.533788 -29.74305,19.594915 -49.40253,23.637185 -1.46107,0.30033 -2.69581,0.58459 -2.747,0.63157 -0.0511,0.0469 -0.005,0.58031 0.0995,1.18678 0.10571,0.60646 1.0461,6.05403 2.09223,12.10371 1.04611,6.04925 1.92348,11.02178 1.94857,11.05009 0.0251,0.0274 1.1494,0.19819 2.50231,0.37639 10.56481,1.39257 17.10267,4.93867 18.90795,10.26064 0.43027,1.26843 0.7689,3.71718 0.61584,4.46583 l -0.12193,0.59115 -0.54402,-0.70265 c -2.26081,-2.92638 -5.56719,-4.62622 -11.47063,-5.89657 l -1.82583,-0.3921 0.11671,3.03508 c 0.13394,3.43972 -0.0205,5.8392 -0.34944,5.34658 -3.04906,-4.56209 -6.38768,-7.19961 -10.44473,-8.25895 -0.98358,-0.25683 -2.10128,-0.37143 -4.58407,-0.46394 -3.94493,-0.14688 -4.61697,-0.36375 -4.61697,-1.47115 0,-0.15417 0.48777,-0.7362 1.08801,-1.2938 l 1.09326,-1.0132 -0.12279,-1.90965 c -0.37144,-5.72808 -1.81448,-12.01886 -3.75644,-16.37572 -1.03703,-2.32681 -1.97697,-3.88777 -3.32992,-5.53515 l -1.07681,-1.30801 -2.31972,0.0912 c -8.05123,0.31059 -13.7791,4.4401 -15.27795,11.01417 -0.6838,2.99968 -1.03866,7.653 -0.79395,10.41331 0.28559,3.22053 0.96703,5.10258 2.35338,6.49745 1.59334,1.60351 2.99703,2.08988 14.06274,4.86766 5.232,1.31331 8.03737,2.42149 10.58315,4.18074 1.27836,0.88328 2.32318,1.95435 3.15782,3.22889 0.20544,0.3137 0.37154,0.60979 0.3719,0.6615 0,0.0517 -0.81418,-0.0727 -1.81537,-0.27986 -1.00116,-0.20721 -2.85872,-0.52466 -4.12835,-0.70265 -3.76046,-0.52711 -12.51973,-1.14735 -12.51973,-0.88599 0,0.0681 0.27198,1.08481 0.60985,2.25537 0.55585,1.92623 1.16584,4.66317 1.16584,5.25005 0,0.17116 -0.19274,0.12989 -0.75503,-0.16836 -5.71529,-3.03015 -8.28358,-4.22752 -11.18778,-5.21863 -3.20612,-1.09449 -4.23908,-1.25675 -8.74683,-1.38061 -3.37995,-0.0928 -4.18363,-0.16179 -4.66113,-0.39659 -0.31743,-0.15622 -0.5777,-0.31111 -0.5777,-0.34645 0,-0.0353 -0.0523,-0.18103 -0.11077,-0.32103 -0.0718,-0.17189 0.38223,-0.71967 1.39257,-1.68517 2.69571,-2.57603 3.05577,-3.50268 3.0583,-7.86234 0.002,-2.47114 -0.0712,-3.33782 -0.39436,-4.80706 -1.40266,-6.38014 -5.11434,-12.13544 -11.90912,-18.44849 -2.70298,-2.51135 -4.34348,-3.76319 -10.09528,-7.72991 -5.30177,-3.65645 -7.17718,-5.06457 -9.62833,-7.22556 -3.67116,-3.236303 -6.27104,-6.480152 -8.56236,-10.683399 -2.70251,-4.957743 -4.2432,-9.973633 -5.39446,-17.562513 -2.48568,-16.383697 -1.46339,-28.241018 3.31346,-38.480399 3.1859,-6.829352 9.38016,-14.063783 16.22156,-18.952838 10.62533,-7.5931406 29.86117,-14.330789 47.3275,-16.57476038 4.21812,-0.54204747 8.84291,-0.80692393 13.47082,-0.8051719860786 z M -212.56716,41.534267 a 5.0113903,2.6488777 77.279501 0 0 -1.48013,5.472292 5.0113903,2.6488777 77.279501 0 0 3.68687,4.304945 5.0113903,2.6488777 77.279501 0 0 1.48088,-5.471543 5.0113903,2.6488777 77.279501 0 0 -3.68762,-4.305694 z"/><g id="g726" transform="matrix(0.13900609,0,0,0.13900609,-398.06939,10.362977)" style="display:inline;stroke-width:1.90339"><g id="g706" transform="rotate(82,900,240)" style="stroke-width:1.90339"><use xlink:href="#Pentagram" fill="#ffffff" transform="matrix(5.6225933,-40.00683,40.00683,5.6225933,900,120)" id="use702" style="stroke-width:3.12104"/><use xlink:href="#Pentagram" fill="#c8102e" transform="matrix(3.4793275,-24.756702,24.756702,3.4793275,900,120)" id="use704" style="stroke-width:3.12104"/></g><g id="g712" style="stroke-width:1.90339"><use xlink:href="#Pentagram" fill="#ffffff" transform="matrix(45.4,0,0,45.4,900,120)" id="use708" style="stroke-width:3.12104"/><use xlink:href="#Pentagram" fill="#c8102e" transform="matrix(30,0,0,30,900,120)" id="use710" style="stroke-width:3.12104"/></g><g id="g718" transform="rotate(82,900,240)" style="stroke-width:1.90339"><use xlink:href="#Pentagram" fill="#ffffff" transform="matrix(6.3184588,-44.95817,44.95817,6.3184588,900,380)" id="use714" style="stroke-width:3.12104"/><use xlink:href="#Pentagram" fill="#c8102e" transform="matrix(4.175193,-29.708042,29.708042,4.175193,900,380)" id="use716" style="stroke-width:3.12104"/></g><g id="g724" style="stroke-width:1.90339"><use xlink:href="#Pentagram" fill="#ffffff" transform="matrix(50.4,0,0,50.4,900,480)" id="use720" style="stroke-width:3.12104"/><use xlink:href="#Pentagram" fill="#c8102e" transform="matrix(35,0,0,35,900,480)" id="use722" style="stroke-width:3.12104"/></g></g><g id="g740" transform="matrix(0.72319233,0,0,0.72319233,-13.514428,218.94726)" style="display:inline;stroke-width:1.38276"><g id="g732" style="stroke-width:1.38276"><path id="path728" style="fill:#ffffff;fill-opacity:1;stroke-width:20.7413" d="m -414.53695,-302.19087 -60.95697,30.47384 -26.30224,-13.15147 c -3.80401,1.97608 -7.26014,4.03661 -10.21678,6.1495 -1.6983,1.21365 -3.36591,2.53583 -4.98763,3.93651 l 23.75626,11.94244 -45.49604,22.74731 c -1.24593,5.22623 -1.93219,10.82354 -2.06293,16.94007 h 3.68856 l 61.6208,-30.80825 61.63008,30.80825 h 17.74467 v -8.87626 l -61.61008,-30.81112 61.61008,-30.79753 v -5.4964 c -2.44109,-0.62603 -4.83107,-1.16849 -7.11202,-1.58704 -3.49863,-0.64199 -7.3204,-1.1314 -11.30576,-1.46985 z"/><path id="path730" style="fill:#c8102e;fill-opacity:1;stroke-width:20.7413" d="m -409.65438,-301.68353 -65.83956,32.92978 v 5.9137 l 74.76441,-37.3822 c -0.84461,-0.17877 -1.68146,-0.34826 -2.50167,-0.49877 -2.03945,-0.37423 -4.19646,-0.69097 -6.42318,-0.96251 z m -65.83956,38.84348 79.37475,39.68738 v -5.91298 l -67.52663,-33.7744 z m 0,0 -64.86704,32.43388 c -0.20272,1.98466 -0.33891,4.02595 -0.40802,6.12735 l 65.27506,-32.64824 z m 0,0 -34.49467,-17.24733 c -0.68757,0.45465 -1.3812,0.90877 -2.02435,1.36838 -0.94786,0.67737 -1.88376,1.39502 -2.81036,2.13368 l 27.48126,13.74527 z"/></g><g id="g738" transform="translate(0,102.69726)" style="stroke-width:1.38276"><path id="path734" style="fill:#ffffff;fill-opacity:1;stroke-width:20.7413" d="m -462.26815,-401.52469 c -9.16034,2.06474 -18.21877,4.83995 -26.45873,8.07453 v 14.67777 h -26.74026 c -8.0557,6.57706 -15.11477,15.2851 -18.97657,23.56333 -0.44554,0.95504 -0.8628,1.92234 -1.2612,2.89897 h 46.97803 v 26.45802 h 26.45873 v -26.45802 h 66.14896 v -26.4623 h -66.14896 z"/><path id="path736" style="fill:#c8102e;fill-opacity:1;stroke:none;stroke-width:20.7413" d="m -467.55661,-400.25135 c -5.43012,1.39135 -10.77568,3.01086 -15.88252,4.82043 v 21.96057 h -37.84739 c -4.85228,4.8943 -9.03797,10.41975 -11.95101,15.87252 h 49.7984 v 31.7479 h 15.88252 v -31.7479 c 0,-1.9e-4 71.43742,0 71.43742,0 v -15.87252 h -71.43742 z"/></g></g></g></g></svg>