<?xml version="1.0" encoding="UTF-8"?>
<svg viewBox="0 0 640 480" xmlns="http://www.w3.org/2000/svg">
 <path d="m277.88-14.492v0.80299h3.7475l-3.7475-0.803m26.233 8.8327l2.998 5.6208h1.4992c0.82669-3.9759-0.91519-5.3282-4.4972-5.6208m-7.4953 4.0149c5.5263 4.1706 19.394 16.688 11.992 23.286 1.937 4.475 5.9467 10.615 10.493 12.045l8.2448-8.0298-8.2448 12.045c7.296 5.5059 12.78 13.585 18.113 21.107 0.6424 0.90577 4.8877 8.4015 6.0608 4.3891 0.79288-2.7109-6.0809-12.23-6.9347-15.86 4.7295 4.5641 4.6112 12.43 11.992 13.65l-3.7476-6.4238 1.4991-1.606 3.7477 1.606-0.7496-3.2119 2.2485 2.4089h2.9982v1.606c-2.5558 0.21112-3.6733 0.54519-4.4971 3.2119l3.7475 0.803v0.80299l-3.7475 4.8178 2.998 7.2267c-2.7551-3.4527-4.548-6.1033-8.9943-6.4237 1.0223 4.0261 4.1411 7.0059 6.2811 10.439 3.7596 6.0286 6.0652 21.104 14.706 20.074l-2.9981 3.2119c1.5741 5.9107 2.1698 13.327 8.9943 12.045-1.7816 1.3747-5.4692 1.9351-6.7216 3.6953-2.0522 2.8842 0.62799 4.7182 2.9741 4.3344l0.7495 4.8178-5.9962 0.803c-0.58542 7.6812-1.8213 21.44-8.2485 25.942-5.8882 4.1257-23.335 3.1693-23.079 14.203 0.19345 8.3421 10.314 8.4272 15.585 10.424 3.8788 1.4702 6.0831 5.3855 9.7499 7.2974 4.0287 2.1014 8.822 1.5441 12.739 3.7402 11.335 6.3531 11.453 19.025 4.4156 29.129-4.1502 5.9588-9.6367 9.9906-13.88 15.627-3.6614 4.862 4.648 5.2427 7.2157 5.2507 0.97223 5.9773 4.6194 1.1635 8.1347 2.3085 2.6744 0.87118 2.813 4.8925 3.1082 7.3271 17.582-0.16867 28.705-18.075 37.925-31.086 4.7858-6.7538 11.232-12.127 16.026-18.834 2.4943-3.4905 2.48-7.3753 4.3726-11.071 1.5846-3.0929 4.4154-5.037 6.1348-8.0642l-7.4952-0.803c-1.1244-17.075 15.727-20.927 28.482-17.666l0.7495 6.4238 5.9962-7.2267c-3.7424-3.5588-1.5117-7.9632-1.4991-12.848l11.992-6.4238c-1.7209-10.567 2.1594-21.124 8.2448-28.907v-0.80299c-8.5048-6.5804-20.394-7.9952-28.939-0.3308-3.4794 3.1203-4.5465 7.3769-9.2867 9.15-11.745 4.393-23.687-5.3166-34.478-8.8505-5.2526-1.72-8.7041 0.30199-12.742-4.7865l7.4953 3.2119c-1.7396-3.9956-5.44-6.423-7.0838-10.439-2.4614-6.0175-0.018616-15.199-5.6582-19.271l-2.998 2.409v-0.80299l4.4971-2.409c-1.8003-3.0569-4.3058-3.1741-7.4952-3.2119-0.81683-5.975-4.653-7.1136-9.7438-7.2267 0.51193 3.3772 3.1264 4.3264 4.0625 7.3102 0.82144 2.6217-1.1289 5.144-0.1423 7.8098 0.94803 2.5639 4.0144 4.8484 3.0443 7.9824-0.58758 1.8965-2.8549 2.6394-4.264 1.2704-1.9815-1.9264-0.85141-5.4105-3.2431-7.255-1.9758-1.524-4.7414-0.87041-6.9528-1.7962-6.981-2.9236-16.346-11.794-8.2448-19.336-1.5911-4.4002-5.1634-11.258-9.7439-12.045-0.035034-4.1281-0.18573-6.8582-4.4971-7.2267v-0.80299l4.4971-0.803-1.4989-3.2119 3.7475-0.803c-1.9443-7.719-7.7964-15.17-14.99-12.045l-2.9981-3.2119v-0.80299h2.9981c-1.9322-6.4099-13.272-8.2809-18.738-9.6357v2.409h-4.4972l2.9982-2.409c-1.9193-6.7034-5.6304 0.22101-7.4953 3.212-0.85141-5.1196-16.222-25.558-19.488-16.862m60.712 43.361v3.2119h3.7476l-3.7476-3.2119m32.23 21.68c0.42215-2.8433-0.72855-13.759-5.787-11.1-6.0495 3.179 3.2305 10.041 5.787 11.1m-16.49-7.2267c1.4278 2.7036 2.6347 2.7574 5.2466 1.606l-5.2466-1.606m-2.9981 9.6357l-1.4991-3.212c-3.1824 1.9592-1.7344 4.0221 1.4991 3.212m25.484 4.0148c1.2143 2.3616 2.0132 2.8096 4.4971 2.4089l-1.499-3.2118-2.9981 0.803m-23.985 6.4238l5.2466 4.8177 2.2486-5.6207-7.4952 0.803m46.471 28.907l-0.7496 0.803v1.606l0.7496 0.803h1.499l0.7496-0.803v-1.606l-0.7496-0.803h-1.499m16.49 9.6357l3.7476 0.803-3.7476-0.803m-142.41 92.342l0.7495 3.2119c-4.946-0.76843-14.97 5.8464-16.251 11.245-1.0524 4.4356 1.3319 9.3787-0.044983 13.616-1.457 4.4822-6.993 10.34-10.688 12.76-3.1 2.0308-6.8469 1.329-9.4964 4.2527-4.1532 4.5841-4.0033 11.218-6.2669 16.743-3.1975 7.8051-8.7673 14.552-14.967 19.851-4.4535 3.8068-10.837 4.4477-15.74 7.6651-7.49 4.9158-14.2 12.959-21.765 17.198-4.6337 2.5962-10.24 3.0804-14.961 5.7308-4.5062 2.5303-8.5872 6.9915-13.521 8.567-3.8413 1.2269-8.2022-0.66803-11.923 0.89203-3.6556 1.5322-5.9806 6.3162-9.7845 8.3485l0.7495 2.4089c-6.5201 0.46912-9.3705 6.126-14.244 9.9305-3.3399 2.6071-7.4848 3.7394-8.2418 8.5378-8.8218 0.68677-18.747 14.1-5.2467 16.06v0.80301h-5.2467l1.4991 3.2119-11.992-4.0149-3.7476 10.439 9.7437-1.6059v0.80298c-2.9744 1.2036-8.4678 4.5104-2.2486 5.6207v0.80301l-14.99 1.606 0.7495 8.0297 5.2467-1.6059-1.4991 4.0148h4.4972c-5.2032 8.3959 11.14 5.2779 15.74 6.2808 4.9043 1.0688 7.5402-3.7322 11.996-2.9347 4.5691 0.81805 4.5579 6.0254 8.2882 7.3816 2.8332 1.0302 6.0308-1.0792 8.9366-1.0167 3.0178 0.065887 6.0382 1.7032 9.0055 2.3335v1.606l-4.4971 1.6059v1.606c6.8035 2.4034 12.651 0.98605 19.488 0 1.3358 6.5589 9.6698 3.762 14.241 2.903 12.449-2.3399 21.962-7.6453 31.256-16.951 1.8829-1.8845 2.5805-4.6114 4.7647-6.2448 4.7647-3.566 13.616 0.19345 14.197-7.8114l-5.2467 1.606c4.1449-10.16 9.6848-22.198 17.989-28.907 0.17847-7.3743 0.31044-16.788 4.3984-23.024 2.6691-4.0727 7.9914-5.596 12.091-7.2525 7.5913-3.0674 14.301-7.9358 22.486-9.069 0.54346-9.6291 12.645 1.3396 17.239 1.606v-4.8178h0.7496l1.499 4.8178h0.74957c9.364-8.2666-2.681-10.733-8.9942-12.045 0.17328-2.673-0.72394-5.4056-0.087708-8.0297 2.3619-9.7408 11.938-7.4017 17.632-13.348 3.8471-4.0157 5.2722-10.456 8.8413-14.788 8.0034-9.7152 18.162-16.796 24.582-28.073l-4.4973-2.409-2.9066-8.7972 11.151-10.474-0.7495-0.803-18.738 6.4237v-3.2119l-8.2449-4.8178c-3.4694 1.5409-11.292 9.125-14.879 7.784-4.079-1.5257-2.1347-12.948-2.3596-16.617-2.7404-0.77722-5.7301 0.99008-8.2328-0.15418-2.9563-1.3522-4.8112-5.7886-1.3582-7.8217 2.1736-1.2791 5.6986-0.10681 8.0917-0.053802v-1.606h-14.99m38.975 14.454c4.4043-0.4866 7.188-2.5093 8.2448-7.2268-5.2848 0.12129-7.1542 1.6774-8.2448 7.2268m-2.9982 2.4089v1.606c3.0739 1.2462 5.4919 1.4437 7.4953-1.606l-3.7476-1.6059-3.7477 1.6059m5.9963 4.8178c4.8449 7.1971 13.075-0.41196 17.239-4.0149-5.119-3.6599-12.979 0.77167-17.239 4.0149m-226.36 139.72l-0.7495 4.0149 4.4971 1.6059-0.7496-5.6208h-2.9981m-12.742 21.68h8.9942c-0.47209-6.4935-8.5167-6.4157-8.9942 0z" fill="#003f7f"/>
</svg>
